<svg xmlns="http://www.w3.org/2000/svg" xmlns:xlink="http://www.w3.org/1999/xlink" viewBox="0 0 386.54 210"><defs><style>.cls-1{fill:url(#Gradient);}</style><linearGradient id="Gradient" y1="105" x2="386.54" y2="105" gradientUnits="userSpaceOnUse"><stop offset="0" stop-color="#3990fc"/><stop offset="1" stop-color="#291aff"/></linearGradient></defs><g id="레이어_2" data-name="레이어 2"><g id="레이어_1-2" data-name="레이어 1"><path class="cls-1" d="M302.74,0H83.8A83.8,83.8,0,0,0,0,83.8H0a83.8,83.8,0,0,0,83.8,83.81H302.74s21-3.71.36,42.39c0,0,69.39-47.49,81.61-108.73.1-.47.19-.94.28-1.42l.06-.31a83.79,83.79,0,0,0,1.41-12.46c.05-1.09.08-2.18.08-3.27h0A83.8,83.8,0,0,0,302.74,0ZM286.3,57.84l11.79-.78,0-9L311,47.56l.93,38.71-13.48.54L298.09,69l-12.19,0ZM174.69,46.94V57l-38.22,1v3.94l36.76-.66.45,10.13-37.13,1.13.08,3.85,36.6-.78.45,10.59S123,87.63,123.13,87.33s-.71-39.46-.71-39.46Zm-64.22-.8-1.22,45.21H95.72l.45-32-11.64.41V46.94Zm-53.08,5,23.93-.81L80.14,91.84l-12.63.31.32-28.35L57.39,64Zm53.55,57.22-52.83,1V97.35l52.83-.95Zm65-5.48-20.39.4,0,13.17h-13.7l0-12.93-20.39.08V91.84L176,90.78Zm8.88-56.15L225,46l.4,12.28-26.34.67.16,16.46,24.45-.71.8,11.88-38.85,1.2Zm55.93,74.62-19-10.2-18.95,10.87-6.41-10.55L214,101,215,91.48,228,91l1.2,9.61,17.22,10Zm3.28-48.58.06,13.61H230.37l.93-39.25,12.42-.27.34,13.7,7.54-.35.93,11.88Zm14.88-26.17,13.61-1.07.65,29.81,20.45-.58.13,11.89-34.31.8ZM316.87,121l-18.78-9.8-19.4,10.6-6-10.28,17.89-11.34.66-8.81,13.09-.54,1.06,9.08,17.36,10.68Zm-1.06-35.24-.4-38.45L329,46.76l.14,38.58Z"/></g></g></svg>