<svg xmlns="http://www.w3.org/2000/svg" xmlns:xlink="http://www.w3.org/1999/xlink" viewBox="0 0 167.61 210"><defs><style>.cls-1{fill:url(#Gradient);}.cls-2{fill:url(#Gradient-2);}</style><linearGradient id="Gradient" x1="166.11" y1="99.54" x2="166.11" y2="99.54" gradientUnits="userSpaceOnUse"><stop offset="0" stop-color="#3990fc"/><stop offset="1" stop-color="#291aff"/></linearGradient><linearGradient id="Gradient-2" x1="0" y1="105" x2="167.61" y2="105" xlink:href="#Gradient"/></defs><g id="레이어_2" data-name="레이어 2"><g id="레이어_1-2" data-name="레이어 1"><polygon class="cls-1" points="166.11 99.54 166.11 99.54 166.11 99.54 166.11 99.54"/><path class="cls-2" d="M167.61,83.8h0c0-1.65-.06-3.28-.16-4.91,0-.51-.07-1-.11-1.53-.09-1.13-.19-2.26-.32-3.37,0-.28-.05-.57-.08-.85s-.1-.56-.14-.84c-.15-1.11-.33-2.22-.53-3.31-.08-.5-.16-1-.26-1.48-.31-1.56-.64-3.1-1-4.62v0h0A83.37,83.37,0,0,0,153.3,37c-.76-1.12-1.54-2.21-2.34-3.29-1.07-1.43-2.2-2.81-3.36-4.18l-.88-1c-1.18-1.34-2.39-2.66-3.65-3.92h0c-1.89-1.89-3.88-3.7-5.95-5.4h0c-1.38-1.13-2.81-2.21-4.26-3.26l-1.09-.78c-1.47-1-3-2-4.5-3-1-.62-2.07-1.21-3.12-1.79l-.84-.46c-.94-.5-1.88-1-2.84-1.45l-.41-.21c-1.08-.52-2.18-1-3.28-1.48l-.85-.35c-.93-.39-1.87-.76-2.82-1.12L112.43,5c-1.13-.41-2.27-.8-3.43-1.16l-.81-.24c-1-.3-1.92-.57-2.9-.83l-.83-.22c-1.18-.3-2.37-.57-3.57-.82l-.71-.14c-1-.2-2-.38-3.05-.54C96.81,1,96.5,1,96.18.92,95,.74,93.72.57,92.48.45L92,.4C90.89.3,89.78.21,88.66.15l-1,0C86.37,0,85.09,0,83.8,0h0A83.57,83.57,0,0,0,51.18,6.59c-1.25.53-2.49,1.09-3.71,1.67A84.15,84.15,0,0,0,8.26,47.47Q6.51,51.13,5.09,55T2.64,62.86C2.29,64.2,2,65.55,1.7,66.92A83.78,83.78,0,0,0,.43,75.24C.15,78.05,0,80.91,0,83.8a83.64,83.64,0,0,0,10.11,40c.65,1.19,1.32,2.36,2,3.51a84.26,84.26,0,0,0,18,20.86l1.09.89C33,150.51,35,152,37,153.3A83.44,83.44,0,0,0,83.8,167.61l1.72,0c4.56.35,15.5,4.74-1.36,42.43,0,0,69.4-47.49,81.61-108.73h0c.13-.58.23-1.15.34-1.73h0c.28-1.45.52-2.92.72-4.4v0q.3-2.22.48-4.47h0l.06-.73h0c.06-.91.12-1.81.15-2.73.06-1.11.09-2.22.09-3.34h0Zm-88-20.62L76,109.51c-.43,4.71-1.31,6-5.52,6H57.63c-4.07,0-6-1.34-5.52-6l2.47-31.65-13.09.27c-3.48.13-4.79-.81-4.79-3.91V61.7c0-3.1,1.31-3.91,4.79-4L74.06,57C78.57,56.85,80,58.47,79.59,63.18Zm51-7.41-4.51,56.43c-.43,4.71-1.31,6.06-5.52,6.06H107.07c-4.07,0-6-1.35-5.53-6.06l3.2-41.75-14.39.27c-3.49.14-4.8-.81-4.8-3.9V54.29c0-3.1,1.31-3.9,4.8-4l34.75-.67C129.6,49.44,131.06,51.06,130.62,55.77Z"/></g></g></svg>