<svg xmlns="http://www.w3.org/2000/svg" viewBox="0 0 386.54 210"><defs><style>.cls-1{fill:#2948ff;}</style></defs><g id="레이어_2" data-name="레이어 2"><g id="레이어_1-2" data-name="레이어 1"><path class="cls-1" d="M302.74,0H83.8A83.8,83.8,0,0,0,0,83.8H0a83.8,83.8,0,0,0,83.8,83.81H302.74s21-3.71.36,42.39c0,0,69.39-47.49,81.61-108.73.1-.47.19-.94.28-1.42l.06-.31a83.79,83.79,0,0,0,1.41-12.46c.05-1.09.08-2.18.08-3.27h0A83.8,83.8,0,0,0,302.74,0ZM98.6,110.91,83.53,92.17,57.39,125V42.63h13.9V85.18L93.69,57l10.66,8.74L92.36,81l16.82,21.06Zm58,0L141.57,92.17,115.42,125V42.63h13.91V85.18L151.72,57l10.66,8.74L150.39,81l16.82,21.06Zm68.44-26.3a26.4,26.4,0,1,1-52.79,0V60.39h13.9V84.61a12.49,12.49,0,1,0,25,0V60.39h13.91Zm42-10.4H252.55V85.36C252.55,92,258,97.19,265,97.19h2.09V111H265c-14.15,0-26.39-11.08-26.39-25.65V74.21h-6.91V60.39h6.91V43h13.9V60.39h14.58Zm62,10.4a26.4,26.4,0,1,1-52.79,0V60.39h13.9V84.61a12.49,12.49,0,0,0,25,0V60.39h13.91Z"/></g></g></svg>